<?xml version="1.0" encoding="utf-8"?>
<!-- Generator: Adobe Illustrator 26.0.1, SVG Export Plug-In . SVG Version: 6.00 Build 0)  -->
<svg version="1.1" id="Layer_1" xmlns="http://www.w3.org/2000/svg" xmlns:xlink="http://www.w3.org/1999/xlink" x="0px" y="0px"
	 viewBox="0 0 64 64" style="enable-background:new 0 0 64 64;" xml:space="preserve">
<style type="text/css">
	.st0{stroke:#000000;stroke-width:6;stroke-miterlimit:10;}
</style>
<g>
	<path d="M15.2,15c3,0,5.5,2.5,5.5,5.5s-2.5,5.5-5.5,5.5s-5.5-2.5-5.5-5.5S12.2,15,15.2,15 M15.2,9C8.9,9,3.8,14.1,3.8,20.5
		s5.1,11.5,11.5,11.5s11.5-5.1,11.5-11.5S21.6,9,15.2,9L15.2,9z"/>
</g>
<g>
	<path d="M36.5,15c3,0,5.5,2.5,5.5,5.5s-2.5,5.5-5.5,5.5s-5.5-2.5-5.5-5.5S33.5,15,36.5,15 M36.5,9c-6.3,0-11.5,5.1-11.5,11.5
		s5.1,11.5,11.5,11.5S48,26.8,48,20.5S42.9,9,36.5,9L36.5,9z"/>
</g>
<rect x="6.8" y="34" class="st0" width="38.3" height="17.8"/>
<polygon class="st0" points="41.3,42.6 59.2,53 59.2,32.3 "/>
</svg>
