<svg id="Layer_1" data-name="Layer 1" xmlns="http://www.w3.org/2000/svg" xmlns:xlink="http://www.w3.org/1999/xlink" viewBox="0 0 954.74 954.74"><defs><style>.cls-1,.cls-2,.cls-3,.cls-4{fill:none;stroke-linejoin:round;}.cls-1,.cls-2{stroke-width:65px;}.cls-1{stroke:url(#linear-gradient);}.cls-2{stroke:url(#linear-gradient-2);}.cls-3{stroke-width:20px;stroke:url(#linear-gradient-3);}.cls-4{stroke-linecap:square;stroke-width:80px;stroke:url(#linear-gradient-4);}</style><linearGradient id="linear-gradient" x1="260.62" y1="1092.81" x2="844.66" y2="81.23" gradientUnits="userSpaceOnUse"><stop offset="0" stop-color="#ffbaff" stop-opacity="0.3"/><stop offset="0.22" stop-color="#d289d7" stop-opacity="0.55"/><stop offset="0.51" stop-color="#a658af" stop-opacity="0.8"/><stop offset="0.77" stop-color="#8b3a97" stop-opacity="0.95"/><stop offset="1" stop-color="#82308f"/></linearGradient><linearGradient id="linear-gradient-2" x1="167.07" y1="1026.6" x2="771.54" y2="-20.37" xlink:href="#linear-gradient"/><linearGradient id="linear-gradient-3" x1="1002.83" y1="922.37" x2="1002.83" y2="922.37" xlink:href="#linear-gradient"/><linearGradient id="linear-gradient-4" x1="511.27" y1="996.48" x2="891.33" y2="338.2" xlink:href="#linear-gradient"/></defs><path class="cls-1" d="M238.57,1061.32c0-843.51,277.23-822.6,822.59-822.6" transform="translate(-106.42 -106.57)"/><path class="cls-2" d="M138.92,991.58c0-843.51,307.14-852.51,852.5-852.51" transform="translate(-106.42 -106.57)"/><path class="cls-3" d="M1002.83,922.37" transform="translate(-106.42 -106.57)"/><path class="cls-4" d="M810.11,833.06l-55.94-66c-18-21.22,4.64-52.29,30.35-41.71h0c94.55,38.89,198.31-30.63,198.31-132.86v-97c0-62.26-55.84-109.64-117.27-99.56-193.7,31.8-353.72,49.86-431,242.54C367.19,806.4,481.49,991.73,661.71,1008l55,5C814.28,1021.73,873.43,907.8,810.11,833.06Z" transform="translate(-106.42 -106.57)"/></svg>